<?xml version="1.0" encoding="UTF-8"?>
<svg xmlns="http://www.w3.org/2000/svg" viewBox="0 0 64 64" width="64" height="64">
  <rect width="64" height="64" rx="12" fill="white"/>
  
  <!-- Larger house shape that fills more space -->
  <path d="M32 8L8 26v4h6v24a2 2 0 0 0 2 2h32a2 2 0 0 0 2-2V30h6v-4L32 8z" fill="#111827" stroke="#111827" stroke-width="1"/>
  
  <!-- Roof detail -->
  <path d="M22 20h20v-6L32 8l-10 6v6z" fill="#111827" stroke="#111827" stroke-width="1"/>
  
  <!-- Wi-Fi arcs in white, moved higher to center of house -->
  <path d="M24 34c2.5-2.5 8.5-5 16 0" fill="none" stroke="white" stroke-width="2.5" stroke-linecap="round"/>
  <path d="M28 39c1.5-1.5 5-3 8 0" fill="none" stroke="white" stroke-width="2.5" stroke-linecap="round"/>
  <circle cx="32" cy="43" r="2" fill="white"/>
</svg>
